<svg xmlns="http://www.w3.org/2000/svg" width="24" height="24" viewBox="0 0 24 24">
  <g id="folder_6d" transform="translate(-372 -6496)">
    <path id="Path_3639" data-name="Path 3639" d="M698.082,313.1h-7.233a2.6,2.6,0,0,1-1.728-1.058,5.783,5.783,0,0,0-4.276-2.157H680.4a3.162,3.162,0,0,0-3.161,3.16v13.68a3.162,3.162,0,0,0,3.161,3.16h17.679a3.163,3.163,0,0,0,3.16-3.16V316.262A3.164,3.164,0,0,0,698.082,313.1Zm-19.339-.055a1.661,1.661,0,0,1,1.66-1.659h4.442A4.443,4.443,0,0,1,688,313.037a3.954,3.954,0,0,0,2.852,1.564h7.233a1.664,1.664,0,0,1,1.661,1.662v1.317h-21Zm21,11.8v1.883a1.663,1.663,0,0,1-1.66,1.661H680.4a1.662,1.662,0,0,1-1.661-1.662V319.08h21v5.764Z" transform="translate(-305.242 6188.113)" fill="#555"></path>
    <rect id="Rectangle_3349" data-name="Rectangle 3349" width="24" height="24" transform="translate(372 6496)" fill="none"></rect>
  </g>
</svg>