<svg xmlns="http://www.w3.org/2000/svg" width="24" height="24" viewBox="0 0 24 24">
  <g id="menu_6d" transform="translate(-810 -752)">
    <path id="Union_190" data-name="Union 190" d="M-3716.25-2306.5a.75.75,0,0,1-.75-.75.75.75,0,0,1,.75-.75h15a.75.75,0,0,1,.75.75.75.75,0,0,1-.75.75Zm0-6a.75.75,0,0,1-.75-.75.75.75,0,0,1,.75-.75h15a.75.75,0,0,1,.75.75.75.75,0,0,1-.75.75Zm0-6a.75.75,0,0,1-.75-.75.75.75,0,0,1,.75-.75h15a.75.75,0,0,1,.75.75.75.75,0,0,1-.75.75Z" transform="translate(4531 3077)" fill="#555555"></path>
    <rect id="Rectangle_3275" data-name="Rectangle 3275" width="24" height="24" transform="translate(810 752)" fill="none"></rect>
  </g>
</svg>