<svg id="reseller_6d" xmlns="http://www.w3.org/2000/svg" xmlns:xlink="http://www.w3.org/1999/xlink" width="24" height="24" viewBox="0 0 24 24">
  <defs>
    <clipPath id="clip-path">
      <rect id="Rectangle_3238" data-name="Rectangle 3238" width="24" height="24" fill="#555"></rect>
    </clipPath>
  </defs>
  <g id="Group_4028" data-name="Group 4028" clip-path="url(#clip-path)">
    <path id="Path_3416" data-name="Path 3416" d="M12,9.923A4.962,4.962,0,1,0,7.037,4.962,4.962,4.962,0,0,0,12,9.923M12,1.5A3.462,3.462,0,1,1,8.537,4.962,3.466,3.466,0,0,1,12,1.5" fill="#555"></path>
    <path id="Path_3417" data-name="Path 3417" d="M21.694,16.906c-.671-2.115-3.037-5.328-9.694-5.328s-9.023,3.213-9.694,5.328c.038,0,.074-.01.113-.01A2.419,2.419,0,0,0,0,19.314v2.268A2.418,2.418,0,0,0,2.419,24H21.581A2.418,2.418,0,0,0,24,21.582V19.314a2.414,2.414,0,0,0-2.306-2.408M5,15.326c1.471-1.472,3.892-2.248,7-2.248,5.225,0,7.369,2.185,8.1,3.818H3.912A5.2,5.2,0,0,1,5,15.326m17.5,6.256a.92.92,0,0,1-.919.919H2.419a.92.92,0,0,1-.919-.919V19.314a.919.919,0,0,1,.919-.918H21.581a.919.919,0,0,1,.919.918Z" fill="#555"></path>
  </g>
</svg>