<svg xmlns="http://www.w3.org/2000/svg" xmlns:xlink="http://www.w3.org/1999/xlink" width="24" height="24" viewBox="0 0 24 24">
  <defs>
    <clipPath id="clip-path">
      <rect id="Rectangle_3605" data-name="Rectangle 3605" width="24" height="22" fill="#555555"></rect>
    </clipPath>
  </defs>
  <g id="_6D_Teams_Default" data-name="6D_Teams_Default" transform="translate(-196 -1072)">
    <g id="Group_4488" data-name="Group 4488" transform="translate(196 1073)">
      <g id="Group_4487" data-name="Group 4487" clip-path="url(#clip-path)">
        <path id="Path_4291" data-name="Path 4291" d="M18.3,6.607a3.3,3.3,0,1,0-3.3-3.3,3.3,3.3,0,0,0,3.3,3.3m0-5.107a1.8,1.8,0,1,1-1.8,1.8,1.806,1.806,0,0,1,1.8-1.8" fill="#555555"></path>
        <path id="Path_4292" data-name="Path 4292" d="M5.7,6.607A3.3,3.3,0,1,0,2.4,3.3a3.3,3.3,0,0,0,3.3,3.3M5.7,1.5A1.8,1.8,0,1,1,3.9,3.3,1.806,1.806,0,0,1,5.7,1.5" fill="#555555"></path>
        <path id="Path_4293" data-name="Path 4293" d="M14.758,14.353v0H9.306a4.471,4.471,0,0,0-4.458,4.459v1.2A1.992,1.992,0,0,0,6.84,22H17.16a1.993,1.993,0,0,0,1.993-1.993v-1.2a4.455,4.455,0,0,0-4.395-4.455m2.895,5.654a.493.493,0,0,1-.493.493H6.84a.493.493,0,0,1-.492-.493v-1.2a2.962,2.962,0,0,1,2.958-2.959h5.411a2.953,2.953,0,0,1,2.936,2.959Z" fill="#555555"></path>
        <path id="Path_4294" data-name="Path 4294" d="M20.479,7.515H16.151c-.1,0-.2.022-.3.031a4.134,4.134,0,0,0-7.7,0h0c-.1-.008-.189-.029-.287-.029V8.973c0,.032-.01.062-.01.094a4.119,4.119,0,0,0,1.352,3.047l0,0H1.589a.088.088,0,0,1-.089-.088v-.956A2.056,2.056,0,0,1,3.554,9.014h4.29l.021-1.5H3.554A3.564,3.564,0,0,0,0,11.068v.956a1.588,1.588,0,0,0,1.589,1.588H9.814A1.582,1.582,0,0,0,11,13.076l-.005,0a3.782,3.782,0,0,0,2.021,0l-.009,0a1.578,1.578,0,0,0,1.182.536h8.226A1.588,1.588,0,0,0,24,12.024v-.956a3.553,3.553,0,0,0-3.521-3.553M12,11.712a2.645,2.645,0,1,1,2.645-2.645A2.649,2.649,0,0,1,12,11.712m10.5.312a.088.088,0,0,1-.088.088H14.8l-.009.008a4.119,4.119,0,0,0,1.359-3.053c0-.018-.005-.034-.006-.052h4.325A2.048,2.048,0,0,1,22.5,11.068Z" fill="#555555"></path>
      </g>
    </g>
    <rect id="Rectangle_3606" data-name="Rectangle 3606" width="24" height="24" transform="translate(196 1072)" fill="none"></rect>
  </g>
</svg>